<svg width="23" height="20" viewBox="0 0 23 20" fill="none" xmlns="http://www.w3.org/2000/svg">
<path d="M11.75 4.49998C14.51 4.49998 16.75 6.73998 16.75 9.49998C16.75 10.15 16.62 10.76 16.39 11.33L19.31 14.25C20.82 12.99 22.01 11.36 22.74 9.49998C21.01 5.10998 16.74 1.99998 11.74 1.99998C10.34 1.99998 9 2.24998 7.76 2.69998L9.92 4.85998C10.49 4.62998 11.1 4.49998 11.75 4.49998ZM1.75 1.76998L4.03 4.04998L4.49 4.50998C2.83 5.79998 1.53 7.51998 0.75 9.49998C2.48 13.89 6.75 17 11.75 17C13.3 17 14.78 16.7 16.13 16.16L16.55 16.58L19.48 19.5L20.75 18.23L3.02 0.499985L1.75 1.76998ZM7.28 7.29998L8.83 8.84999C8.78 9.05999 8.75 9.27998 8.75 9.49998C8.75 11.16 10.09 12.5 11.75 12.5C11.97 12.5 12.19 12.47 12.4 12.42L13.95 13.97C13.28 14.3 12.54 14.5 11.75 14.5C8.99 14.5 6.75 12.26 6.75 9.49998C6.75 8.70998 6.95 7.96999 7.28 7.29998ZM11.59 6.51999L14.74 9.66998L14.76 9.50998C14.76 7.84999 13.42 6.50998 11.76 6.50998L11.59 6.51999Z" fill="black" fill-opacity="0.54"/>
</svg>
