<svg width="364" height="377" viewBox="0 0 364 377" fill="none" xmlns="http://www.w3.org/2000/svg">
<g filter="url(#filter0_d_119_127)">
<path d="M344 149C344 261.39 248.861 352.5 131.5 352.5C14.1395 352.5 -81 261.39 -81 149C-81 36.6101 14.1395 -54.5 131.5 -54.5C248.861 -54.5 344 36.6101 344 149Z" fill="#15B02E"/>
<path d="M343.5 149C343.5 261.094 248.605 352 131.5 352C14.395 352 -80.5 261.094 -80.5 149C-80.5 36.9064 14.395 -54 131.5 -54C248.605 -54 343.5 36.9064 343.5 149Z" stroke="black"/>
<path d="M343.5 149C343.5 261.094 248.605 352 131.5 352C14.395 352 -80.5 261.094 -80.5 149C-80.5 36.9064 14.395 -54 131.5 -54C248.605 -54 343.5 36.9064 343.5 149Z" stroke="black" stroke-opacity="0.2"/>
</g>
<defs>
<filter id="filter0_d_119_127" x="-101" y="-70.5" width="465" height="447" filterUnits="userSpaceOnUse" color-interpolation-filters="sRGB">
<feFlood flood-opacity="0" result="BackgroundImageFix"/>
<feColorMatrix in="SourceAlpha" type="matrix" values="0 0 0 0 0 0 0 0 0 0 0 0 0 0 0 0 0 0 127 0" result="hardAlpha"/>
<feOffset dy="4"/>
<feGaussianBlur stdDeviation="10"/>
<feComposite in2="hardAlpha" operator="out"/>
<feColorMatrix type="matrix" values="0 0 0 0 0 0 0 0 0 0.470588 0 0 0 0 0.941176 0 0 0 0.25 0"/>
<feBlend mode="normal" in2="BackgroundImageFix" result="effect1_dropShadow_119_127"/>
<feBlend mode="normal" in="SourceGraphic" in2="effect1_dropShadow_119_127" result="shape"/>
</filter>
</defs>
</svg>
